<svg xmlns="http://www.w3.org/2000/svg" enable-background="new 0 0 100 100" viewBox="0 0 100 100"><path d="M92.3,34.5H87V25c0-5.8-4.8-10.6-10.6-10.6H40.5l6.9-6.9c0.4-0.4,0.4-1,0-1.4s-1-0.4-1.4,0l-8.7,8.6
		c-0.2,0.2-0.3,0.4-0.3,0.7c0,0.3,0.1,0.5,0.3,0.7l8.7,8.6c0.2,0.2,0.5,0.3,0.7,0.3s0.5-0.1,0.7-0.3c0.4-0.4,0.4-1,0-1.4l-6.9-6.9
		h35.9c4.7,0,8.6,3.9,8.6,8.6v9.6H7.7c-3.2,0-5.7,2.6-5.7,5.7v8.8v9.2v30.3c0,3.2,2.6,5.7,5.7,5.7h84.6c3.2,0,5.7-2.6,5.7-5.7V58.3
		v-9.2v-8.8C98,37.1,95.4,34.5,92.3,34.5z M7.7,36.5h78c0.1,0,0.2,0.1,0.3,0.1s0.2,0,0.3-0.1h6.1c2.1,0,3.7,1.7,3.7,3.7v7.8H4v-7.8
		C4,38.2,5.7,36.5,7.7,36.5z M96,57.3H4v-7.2h92V57.3z M92.3,92.3H7.7c-2.1,0-3.7-1.7-3.7-3.7V59.3h92v29.3
		C96,90.6,94.3,92.3,92.3,92.3z"/><path d="M29.1 66.1c-1.4 0-2.8.3-4 1-1.2-.6-2.6-1-4-1-5.1 0-9.2 4.1-9.2 9.2 0 5.1 4.1 9.2 9.2 9.2 1.4 0 2.8-.3 4-1 1.3.6 2.6 1 4 1 5.1 0 9.2-4.1 9.2-9.2C38.3 70.2 34.2 66.1 29.1 66.1zM21.1 82.4c-4 0-7.2-3.2-7.2-7.2 0-4 3.2-7.2 7.2-7.2.7 0 1.4.1 2 .3-.1.1-.2.2-.2.2-.1.1-.2.2-.3.3-.2.2-.4.4-.5.6-.1.1-.1.2-.2.3-.2.3-.4.6-.6.9 0 0 0 .1-.1.1-.2.3-.3.6-.4.8 0 .1-.1.2-.1.3-.1.2-.2.5-.2.7 0 .1-.1.3-.1.4-.1.2-.1.5-.2.8 0 .1 0 .2-.1.3 0 .4-.1.7-.1 1.1 0 .4 0 .8.1 1.1 0 .1 0 .2.1.3 0 .3.1.5.2.8 0 .1.1.3.1.4.1.2.2.5.2.7 0 .1.1.2.1.3.1.3.3.6.4.8 0 0 0 .1.1.1.2.3.4.6.6.9.1.1.1.2.2.3.2.2.3.4.5.6.1.1.2.2.3.3.1.1.1.2.2.2C22.4 82.3 21.8 82.4 21.1 82.4zM29.1 82.4c-1.3 0-2.4-.3-3.5-.9-2.2-1.3-3.6-3.6-3.6-6.2 0-2.6 1.4-5 3.6-6.2 1.1-.6 2.3-.9 3.5-.9 4 0 7.2 3.2 7.2 7.2C36.3 79.2 33.1 82.4 29.1 82.4zM87.1 74.2H50c-.6 0-1 .4-1 1s.4 1 1 1h37.1c.6 0 1-.4 1-1S87.7 74.2 87.1 74.2z"/></svg>